<svg xmlns="http://www.w3.org/2000/svg" width="64" height="64" viewBox="0 0 64 64" fill="none">
  <!-- Placeholder ghost icon (not Phantom's trademarked logo). Replace this file with the official Phantom ghost asset if you have permission to use it. -->
  <path d="M32 8C20.4 8 11 17.7 11 29.6V52.1c0 1.8 2.1 2.9 3.6 1.9l4.8-3.2c1.1-.7 2.5-.7 3.6 0l3.5 2.2c1.1.7 2.6.7 3.7 0l3.1-1.9c1.1-.6 2.5-.6 3.6 0l3.1 1.9c1.1.7 2.6.7 3.7 0l3.5-2.2c1.1-.7 2.5-.7 3.6 0l4.8 3.2c1.5 1 3.6-.1 3.6-1.9V29.6C53 17.7 43.6 8 32 8Z" fill="#ffffff"/>
  <path d="M24 32.5c0 1.9-1.5 3.5-3.4 3.5-1.9 0-3.4-1.6-3.4-3.5S18.7 29 20.6 29c1.9 0 3.4 1.6 3.4 3.5Zm22.8 0c0 1.9-1.5 3.5-3.4 3.5-1.9 0-3.4-1.6-3.4-3.5S41.5 29 43.4 29c1.9 0 3.4 1.6 3.4 3.5Z" fill="#ffffff"/>
</svg>
